<svg xmlns="http://www.w3.org/2000/svg" width="1080" height="820" viewBox="0 0 1080 820"><rect width="1080" height="820" fill="#f5f4ef"/><g font-family="Arial,Helvetica,sans-serif" fill="#242421"><text x="48" y="58" font-size="28" font-weight="600">DesignBench</text><text x="48" y="84" font-size="13" fill="#77776d">Four simple bench marks · editable SVG source · monochrome first</text><rect x="48" y="115" width="484" height="302" rx="16" fill="#fff" stroke="#e1e1d9"/><text x="72" y="149" font-size="12" fill="#77776d">01 / JOINERY</text><g transform="translate(72,182) scale(1.65)" color="#242421"><path d="M5 9h38v7H5zM10 16h6v23h-6zM32 16h6v23h-6zM16 28h16v5H16z" fill="currentColor"/></g><text x="170" y="232" font-size="28" font-weight="600" letter-spacing="-1">DesignBench</text><text x="72" y="300" font-size="13" fill="#77776d">A sturdy worktop, two legs, one brace.</text><line x1="72" y1="322" x2="508" y2="322" stroke="#eeeeea"/><g transform="translate(72,349) scale(0.3333333333333333)" color="#242421"><path d="M5 9h38v7H5zM10 16h6v23h-6zM32 16h6v23h-6zM16 28h16v5H16z" fill="currentColor"/></g><g transform="translate(112,349) scale(0.5)" color="#242421"><path d="M5 9h38v7H5zM10 16h6v23h-6zM32 16h6v23h-6zM16 28h16v5H16z" fill="currentColor"/></g><g transform="translate(158,349) scale(0.6666666666666666)" color="#242421"><path d="M5 9h38v7H5zM10 16h6v23h-6zM32 16h6v23h-6zM16 28h16v5H16z" fill="currentColor"/></g><text x="218" y="367" font-size="11" fill="#999990">16 / 24 / 32 px</text><rect x="446" y="340" width="44" height="44" rx="10" fill="#242421"/><g transform="translate(452,346) scale(.6667)" color="#fff"><path d="M5 9h38v7H5zM10 16h6v23h-6zM32 16h6v23h-6zM16 28h16v5H16z" fill="currentColor"/></g><rect x="556" y="115" width="484" height="302" rx="16" fill="#fff" stroke="#e1e1d9"/><text x="580" y="149" font-size="12" fill="#77776d">02 / TRESTLE</text><g transform="translate(580,182) scale(1.65)" color="#242421"><g fill="none" stroke="currentColor" stroke-width="4" stroke-linecap="round" stroke-linejoin="round"><path d="M5 12h38M15 12 8 38M33 12l7 26M12 28h25"/></g></g><text x="678" y="232" font-size="28" font-weight="600" letter-spacing="-1">DesignBench</text><text x="580" y="300" font-size="13" fill="#77776d">An open, familiar workshop silhouette.</text><line x1="580" y1="322" x2="1016" y2="322" stroke="#eeeeea"/><g transform="translate(580,349) scale(0.3333333333333333)" color="#242421"><g fill="none" stroke="currentColor" stroke-width="4" stroke-linecap="round" stroke-linejoin="round"><path d="M5 12h38M15 12 8 38M33 12l7 26M12 28h25"/></g></g><g transform="translate(620,349) scale(0.5)" color="#242421"><g fill="none" stroke="currentColor" stroke-width="4" stroke-linecap="round" stroke-linejoin="round"><path d="M5 12h38M15 12 8 38M33 12l7 26M12 28h25"/></g></g><g transform="translate(666,349) scale(0.6666666666666666)" color="#242421"><g fill="none" stroke="currentColor" stroke-width="4" stroke-linecap="round" stroke-linejoin="round"><path d="M5 12h38M15 12 8 38M33 12l7 26M12 28h25"/></g></g><text x="726" y="367" font-size="11" fill="#999990">16 / 24 / 32 px</text><rect x="954" y="340" width="44" height="44" rx="10" fill="#242421"/><g transform="translate(960,346) scale(.6667)" color="#fff"><g fill="none" stroke="currentColor" stroke-width="4" stroke-linecap="round" stroke-linejoin="round"><path d="M5 12h38M15 12 8 38M33 12l7 26M12 28h25"/></g></g><rect x="48" y="441" width="484" height="302" rx="16" fill="#fff" stroke="#e1e1d9"/><text x="72" y="475" font-size="12" fill="#77776d">03 / MODULES</text><g transform="translate(72,508) scale(1.65)" color="#242421"><rect x="4" y="9" width="25" height="7" rx="2" fill="currentColor"/><rect x="32" y="9" width="12" height="7" rx="2" fill="currentColor"/><path d="M10 20h6v19h-6zM32 20h6v19h-6zM20 28h8v5h-8z" fill="currentColor"/></g><text x="170" y="558" font-size="28" font-weight="600" letter-spacing="-1">DesignBench</text><text x="72" y="626" font-size="13" fill="#77776d">Separate pieces forming one shared bench.</text><line x1="72" y1="648" x2="508" y2="648" stroke="#eeeeea"/><g transform="translate(72,675) scale(0.3333333333333333)" color="#242421"><rect x="4" y="9" width="25" height="7" rx="2" fill="currentColor"/><rect x="32" y="9" width="12" height="7" rx="2" fill="currentColor"/><path d="M10 20h6v19h-6zM32 20h6v19h-6zM20 28h8v5h-8z" fill="currentColor"/></g><g transform="translate(112,675) scale(0.5)" color="#242421"><rect x="4" y="9" width="25" height="7" rx="2" fill="currentColor"/><rect x="32" y="9" width="12" height="7" rx="2" fill="currentColor"/><path d="M10 20h6v19h-6zM32 20h6v19h-6zM20 28h8v5h-8z" fill="currentColor"/></g><g transform="translate(158,675) scale(0.6666666666666666)" color="#242421"><rect x="4" y="9" width="25" height="7" rx="2" fill="currentColor"/><rect x="32" y="9" width="12" height="7" rx="2" fill="currentColor"/><path d="M10 20h6v19h-6zM32 20h6v19h-6zM20 28h8v5h-8z" fill="currentColor"/></g><text x="218" y="693" font-size="11" fill="#999990">16 / 24 / 32 px</text><rect x="446" y="666" width="44" height="44" rx="10" fill="#242421"/><g transform="translate(452,672) scale(.6667)" color="#fff"><rect x="4" y="9" width="25" height="7" rx="2" fill="currentColor"/><rect x="32" y="9" width="12" height="7" rx="2" fill="currentColor"/><path d="M10 20h6v19h-6zM32 20h6v19h-6zM20 28h8v5h-8z" fill="currentColor"/></g><rect x="556" y="441" width="484" height="302" rx="16" fill="#fff" stroke="#e1e1d9"/><text x="580" y="475" font-size="12" fill="#77776d">04 / FOLD</text><g transform="translate(580,508) scale(1.65)" color="#242421"><g fill="none" stroke="currentColor" stroke-width="3.5" stroke-linecap="round" stroke-linejoin="round"><path d="m7 15 9-7h26l-9 7H7v24M33 15v24M42 8v24M7 29h26"/></g></g><text x="678" y="558" font-size="28" font-weight="600" letter-spacing="-1">DesignBench</text><text x="580" y="626" font-size="13" fill="#77776d">One continuous line with a little depth.</text><line x1="580" y1="648" x2="1016" y2="648" stroke="#eeeeea"/><g transform="translate(580,675) scale(0.3333333333333333)" color="#242421"><g fill="none" stroke="currentColor" stroke-width="3.5" stroke-linecap="round" stroke-linejoin="round"><path d="m7 15 9-7h26l-9 7H7v24M33 15v24M42 8v24M7 29h26"/></g></g><g transform="translate(620,675) scale(0.5)" color="#242421"><g fill="none" stroke="currentColor" stroke-width="3.5" stroke-linecap="round" stroke-linejoin="round"><path d="m7 15 9-7h26l-9 7H7v24M33 15v24M42 8v24M7 29h26"/></g></g><g transform="translate(666,675) scale(0.6666666666666666)" color="#242421"><g fill="none" stroke="currentColor" stroke-width="3.5" stroke-linecap="round" stroke-linejoin="round"><path d="m7 15 9-7h26l-9 7H7v24M33 15v24M42 8v24M7 29h26"/></g></g><text x="726" y="693" font-size="11" fill="#999990">16 / 24 / 32 px</text><rect x="954" y="666" width="44" height="44" rx="10" fill="#242421"/><g transform="translate(960,672) scale(.6667)" color="#fff"><g fill="none" stroke="currentColor" stroke-width="3.5" stroke-linecap="round" stroke-linejoin="round"><path d="m7 15 9-7h26l-9 7H7v24M33 15v24M42 8v24M7 29h26"/></g></g><text x="48" y="793" font-size="12" fill="#77776d">Recommendation: 01 Joinery — the simplest, strongest silhouette at icon size.</text></g></svg>